<svg width="40" height="40" viewBox="0 0 40 40" fill="none" xmlns="http://www.w3.org/2000/svg">
<rect y="16.6667" width="23.3333" height="23.3333" fill="#7595FD"/>
<path d="M18.3335 10H23.3335L28.8169 4.50002C28.9718 4.3438 29.1562 4.21981 29.3593 4.1352C29.5624 4.05058 29.7802 4.00702 30.0002 4.00702C30.2202 4.00702 30.4381 4.05058 30.6412 4.1352C30.8443 4.21981 31.0286 4.3438 31.1835 4.50002L35.4835 8.81668C35.794 9.12895 35.9682 9.55137 35.9682 9.99168C35.9682 10.432 35.794 10.8544 35.4835 11.1667L31.6669 15H18.3335V18.3333C18.3335 18.7754 18.158 19.1993 17.8454 19.5119C17.5328 19.8244 17.1089 20 16.6669 20C16.2249 20 15.8009 19.8244 15.4884 19.5119C15.1758 19.1993 15.0002 18.7754 15.0002 18.3333V13.3333C15.0002 12.4493 15.3514 11.6014 15.9765 10.9763C16.6016 10.3512 17.4495 10 18.3335 10ZM8.33355 18.3333V25L4.51688 28.8167C4.20646 29.129 4.03223 29.5514 4.03223 29.9917C4.03223 30.432 4.20646 30.8544 4.51688 31.1667L8.81688 35.4833C8.97182 35.6396 9.15615 35.7636 9.35925 35.8482C9.56235 35.9328 9.78019 35.9763 10.0002 35.9763C10.2202 35.9763 10.4381 35.9328 10.6412 35.8482C10.8443 35.7636 11.0286 35.6396 11.1835 35.4833L18.3335 28.3333H25.0002C25.4422 28.3333 25.8662 28.1578 26.1787 27.8452C26.4913 27.5326 26.6669 27.1087 26.6669 26.6667V25H28.3335C28.7756 25 29.1995 24.8244 29.5121 24.5119C29.8246 24.1993 30.0002 23.7754 30.0002 23.3333V21.6667H31.6669C32.1089 21.6667 32.5328 21.4911 32.8454 21.1785C33.158 20.866 33.3335 20.442 33.3335 20V18.3333H21.6669V20C21.6669 20.8841 21.3157 21.7319 20.6906 22.357C20.0654 22.9822 19.2176 23.3333 18.3335 23.3333H15.0002C14.1162 23.3333 13.2683 22.9822 12.6432 22.357C12.0181 21.7319 11.6669 20.8841 11.6669 20V15L8.33355 18.3333Z" fill="#292E3D"/>
</svg>
