<svg width="41" height="40" viewBox="0 0 41 40" fill="none" xmlns="http://www.w3.org/2000/svg">
<g clip-path="url(#clip0_314_103)">
<rect x="0.5" y="16.6667" width="23.3333" height="23.3333" fill="#7595FD"/>
<path d="M32.1518 3.33331H15.5168C13.6651 3.33331 12.1668 4.83165 12.1668 6.68331V16.0783L4.33013 23.815C4.09532 24.0472 3.9348 24.344 3.86893 24.6676C3.80307 24.9912 3.83483 25.3271 3.96019 25.6326C4.08554 25.9381 4.29884 26.1996 4.57302 26.3837C4.84719 26.5678 5.16988 26.6663 5.50013 26.6666V35C5.50013 35.442 5.67573 35.8659 5.98829 36.1785C6.30085 36.4911 6.72477 36.6666 7.1668 36.6666H33.8335C34.2755 36.6666 34.6994 36.4911 35.012 36.1785C35.3245 35.8659 35.5001 35.442 35.5001 35V6.68165C35.5001 4.83165 34.0035 3.33331 32.1518 3.33331ZM18.7035 25.185V33.3333H8.83346V24.0533L13.8118 19.1383L18.7035 24.1433V25.185ZM22.1668 15H18.8335V11.6666H22.1668V15ZM28.8335 28.3333H25.5001V25H28.8335V28.3333ZM28.8335 21.6666H25.5001V18.3333H28.8335V21.6666ZM28.8335 15H25.5001V11.6666H28.8335V15Z" fill="#292E3D"/>
<path d="M12.1665 25H15.4998V28.3333H12.1665V25Z" fill="#14171F"/>
</g>
<defs>
<clipPath id="clip0_314_103">
<rect width="40" height="40" fill="white" transform="translate(0.5)"/>
</clipPath>
</defs>
</svg>
