<svg width="38" height="38" viewBox="0 0 38 38" fill="none" xmlns="http://www.w3.org/2000/svg">
<path d="M33.9998 12.3333C34.8839 12.3333 35.7317 12.6845 36.3569 13.3096C36.982 13.9348 37.3332 14.7826 37.3332 15.6667V22.3333C37.3332 23.2174 36.982 24.0652 36.3569 24.6904C35.7317 25.3155 34.8839 25.6667 33.9998 25.6667H32.2298C31.8235 28.8888 30.2553 31.852 27.8194 34C25.3836 36.148 22.2475 37.3333 18.9998 37.3333V34C21.652 34 24.1955 32.9464 26.0709 31.0711C27.9463 29.1957 28.9998 26.6522 28.9998 24V14C28.9998 11.3478 27.9463 8.80429 26.0709 6.92893C24.1955 5.05357 21.652 4 18.9998 4C16.3477 4 13.8041 5.05357 11.9288 6.92893C10.0534 8.80429 8.99984 11.3478 8.99984 14V25.6667H3.99984C3.11578 25.6667 2.26794 25.3155 1.64281 24.6904C1.01769 24.0652 0.666504 23.2174 0.666504 22.3333V15.6667C0.666504 14.7826 1.01769 13.9348 1.64281 13.3096C2.26794 12.6845 3.11578 12.3333 3.99984 12.3333H5.76984C6.17655 9.11149 7.74497 6.14878 10.1808 4.00112C12.6166 1.85346 15.7524 0.668457 18.9998 0.668457C22.2472 0.668457 25.3831 1.85346 27.8189 4.00112C30.2547 6.14878 31.8231 9.11149 32.2298 12.3333H33.9998ZM11.9332 25.3083L13.6998 22.4817C15.2883 23.4767 17.1254 24.003 18.9998 24C20.8742 24.003 22.7114 23.4767 24.2998 22.4817L26.0665 25.3083C23.9486 26.6352 21.4991 27.3372 18.9998 27.3333C16.5006 27.3372 14.0511 26.6352 11.9332 25.3083Z" fill="#F9995D"/>
</svg>
