<svg width="34" height="34" viewBox="0 0 34 34" fill="none" xmlns="http://www.w3.org/2000/svg">
<path d="M33.3164 25.4333L24.0664 16.1833L26.6831 13.5667L20.4331 7.31668L17.8164 9.93335L8.56644 0.68335L0.683105 8.56668L9.93311 17.8167L1.99977 25.75V32H8.24977L16.1831 24.0667L25.4331 33.3167L33.3164 25.4333ZM12.2998 15.45L5.39977 8.56668L8.56644 5.40002L10.6831 7.51668L8.69977 9.50002L11.0498 11.85L13.0331 9.86668L15.4498 12.2833L12.2998 15.45ZM18.5498 21.7L21.7164 18.5333L24.1331 20.95L22.1498 22.9333L24.4998 25.2833L26.4831 23.3L28.5998 25.4167L25.4331 28.5834L18.5498 21.7ZM22.2214 5.53835L26.4514 1.30668L32.6981 7.55335L28.4681 11.785L22.2214 5.53835Z" fill="#F9995D"/>
</svg>
