<svg width="41" height="40" viewBox="0 0 41 40" fill="none" xmlns="http://www.w3.org/2000/svg">
<g clip-path="url(#clip0_314_5)">
<rect x="0.5" y="16.6667" width="23.3333" height="23.3333" fill="#7595FD"/>
<path d="M30.5002 26.6667H27.1668V25H13.8335V26.6667H10.5002V25H3.8335V33.3334H37.1668V25H30.5002V26.6667ZM33.8335 13.3334H28.8335V10C28.8335 8.16669 27.3335 6.66669 25.5002 6.66669H15.5002C13.6668 6.66669 12.1668 8.16669 12.1668 10V13.3334H7.16683C5.3335 13.3334 3.8335 14.8334 3.8335 16.6667V23.3334H10.5002V20H13.8335V23.3334H27.1668V20H30.5002V23.3334H37.1668V16.6667C37.1668 14.8334 35.6668 13.3334 33.8335 13.3334ZM25.5002 13.3334H15.5002V10H25.5002V13.3334Z" fill="white"/>
</g>
<defs>
<clipPath id="clip0_314_5">
<rect width="40" height="40" fill="white" transform="translate(0.5)"/>
</clipPath>
</defs>
</svg>
