<svg width="40" height="40" viewBox="0 0 40 40" fill="none" xmlns="http://www.w3.org/2000/svg">
<path fill-rule="evenodd" clip-rule="evenodd" d="M35.1026 35.338C34.946 35.4946 34.7269 35.6333 34.5077 35.7273C34.3153 35.8034 32.6022 36.2824 30.7012 36.7973C28.7868 37.3077 27.0961 37.7285 26.9127 37.7331C26.7293 37.7376 26.4118 37.6795 25.8438 37.4874L20.2546 31.8982L20.125 31.5359C20.0535 31.3391 19.991 31.035 19.991 30.8651C19.9911 30.6862 20.412 28.9865 20.9671 26.929C21.4999 24.9296 22.0013 23.1941 22.0729 23.0688C22.1445 22.9436 22.2921 22.7512 22.404 22.6394C22.5158 22.5275 22.7216 22.3754 22.8647 22.2949C23.0123 22.2188 24.7657 21.7174 26.7606 21.1801C28.76 20.6474 30.4821 20.2041 30.5939 20.1996C30.7057 20.1951 30.9919 20.2577 31.6627 20.4901L37.2519 26.0793L37.3771 26.446C37.4441 26.6472 37.4977 26.9603 37.4977 27.1481C37.4931 27.3315 37.0723 29.0312 36.5619 30.9367C36.0515 32.8332 35.568 34.5507 35.4919 34.7431C35.3979 34.9623 35.2592 35.1815 35.1026 35.338ZM24.2331 39.7688C24.1481 39.8538 23.9692 39.9523 23.8439 39.9791C23.7142 40.0105 23.3609 40.015 23.0568 39.9883C22.7482 39.9571 22.0997 39.8544 21.6077 39.7561C21.1158 39.6578 20.2929 39.4344 19.783 39.2557C19.2687 39.0814 18.5756 38.8087 18.2402 38.6523C17.9003 38.5003 17.3502 38.2097 17.0059 38.0086C16.666 37.8119 16.116 37.4497 15.7851 37.2172C15.4542 36.9848 14.8595 36.5153 14.466 36.1665C14.0725 35.8267 13.6075 35.3796 13.4376 35.1829C13.2677 34.9861 12.9055 34.5434 12.6328 34.1991C12.36 33.8548 11.98 33.3137 11.7788 32.9962C11.5776 32.6787 11.2781 32.1555 11.1127 31.8291C10.9429 31.5071 10.6881 30.9391 10.5361 30.5724C10.3841 30.2057 10.183 29.6467 10.0892 29.3202C9.99088 28.9982 9.85238 28.4571 9.78091 28.1082C9.70497 27.7639 9.60672 27.2004 9.56209 26.8515C9.51298 26.5071 9.46394 25.9302 9.45062 25.5769C9.4373 25.2235 9.43748 24.5437 9.45997 24.0651C9.48246 23.5866 9.55422 22.8709 9.61694 22.4684C9.68414 22.0703 9.84087 21.3591 9.96175 20.8895C10.0826 20.4198 10.1722 19.892 10.1633 19.7131C10.15 19.5298 10.1008 19.2838 10.0561 19.1586C9.98016 18.9573 9.21557 18.1659 2.83941 11.7539C-3.70218 5.16761 -4.29686 4.56398 -4.35048 4.3672C-4.38176 4.25539 -4.40853 4.03177 -4.40402 3.86628C-4.40397 3.70527 -4.35471 3.46821 -4.29654 3.33849C-4.21597 3.13273 -3.75964 2.65852 -0.654847 -0.446275C2.68706 -3.78818 2.9018 -3.99397 3.15229 -4.08349C3.29542 -4.1372 3.528 -4.18199 3.67113 -4.18203C3.80977 -4.1776 4.02445 -4.15082 4.13626 -4.11954C4.32409 -4.06592 4.96797 -3.43099 18.6056 10.1172L18.9589 10.2468C19.1602 10.3228 19.4822 10.3674 19.7014 10.354C19.916 10.345 20.3857 10.2509 20.7525 10.1524C21.1148 10.0584 21.6336 9.93303 21.9065 9.88375C22.1793 9.83448 22.7876 9.76276 23.2617 9.71791C23.7313 9.66858 24.5051 9.64601 24.9792 9.65483C25.4488 9.66812 26.2494 9.73499 26.7413 9.80642C27.2378 9.87338 27.9176 9.99843 28.253 10.0833C28.5884 10.1682 29.2369 10.3603 29.693 10.5212C30.1492 10.6821 30.8737 10.9861 31.2985 11.1962C31.7323 11.4063 32.3628 11.7594 32.7071 11.9785C33.0559 12.1931 33.6239 12.591 33.9726 12.8592C34.3706 13.1588 34.8983 13.6238 35.3677 14.1022C35.7881 14.5225 36.2978 15.077 36.499 15.3408C36.7046 15.6002 37.0713 16.1189 37.3171 16.4901C37.563 16.8612 37.9698 17.5633 38.2112 18.0552C38.4616 18.5471 38.8147 19.4013 39.0024 19.9469C39.1901 20.5014 39.418 21.3199 39.5073 21.7671C39.5966 22.2233 39.6993 22.8449 39.7305 23.1535C39.7796 23.5516 39.7661 23.8065 39.6811 24.0436C39.6005 24.2762 39.52 24.4014 39.3947 24.482C39.2963 24.5536 39.1129 24.5939 38.9743 24.5805C38.8401 24.5716 38.6746 24.5224 38.6076 24.4822C38.536 24.4375 37.0202 22.9485 35.2272 21.1734C32.2984 18.2625 31.9541 17.9361 31.7663 17.8825C31.6545 17.8512 31.4667 17.8245 31.3593 17.8334C31.252 17.8335 28.8456 18.4603 26.0098 19.2214C20.9286 20.5824 20.857 20.6092 20.6154 20.8508C20.3738 21.0924 20.3514 21.1685 18.968 26.3167C17.7592 30.8523 17.5801 31.5769 17.6828 32.1448L20.9559 35.4447C24.0769 38.5926 24.2334 38.758 24.3362 39.0308C24.3987 39.1829 24.4345 39.3796 24.421 39.4646C24.4031 39.5451 24.3181 39.6838 24.2331 39.7688ZM32.0806 30.1238C32.2014 29.7884 32.2462 29.4842 32.2508 28.9878C32.251 28.4868 32.2063 28.1738 32.0767 27.8115C31.965 27.4851 31.7996 27.1676 31.6029 26.8993C31.3614 26.5773 31.2049 26.4208 30.8785 26.1749C30.6147 25.9737 30.2704 25.7904 29.9841 25.6832C29.7203 25.5893 29.2865 25.4866 29.0181 25.4598C28.7453 25.4375 28.3115 25.46 28.0476 25.5182C27.7881 25.5719 27.4035 25.7062 27.1887 25.8136C26.974 25.921 26.6341 26.1447 26.4372 26.3147C26.2314 26.4937 25.9764 26.7755 25.8422 26.9724C25.7124 27.1647 25.5469 27.4644 25.4797 27.6389C25.4081 27.8089 25.3096 28.1577 25.2648 28.4082C25.2201 28.6587 25.2021 29.0612 25.2288 29.3027C25.2601 29.5398 25.3181 29.8573 25.3673 30.0049C25.412 30.157 25.5282 30.4253 25.6131 30.6086C25.7025 30.7875 25.9171 31.1005 26.087 31.2973C26.2838 31.5298 26.5297 31.7489 26.7756 31.9054C26.9858 32.044 27.3615 32.2317 27.6119 32.3211C27.9518 32.4462 28.2514 32.4864 28.7479 32.4818C29.222 32.4817 29.5574 32.4324 29.875 32.3205C30.1166 32.231 30.4923 32.052 30.6981 31.9177C30.9083 31.779 31.1723 31.5777 31.2886 31.4524C31.4004 31.3316 31.5883 31.0901 31.7047 30.9111C31.821 30.7322 31.9911 30.3743 32.0806 30.1238Z" fill="white"/>
</svg>
